<?xml version="1.0" encoding="UTF-8" standalone="no"?>
<!-- Created with Inkscape (http://www.inkscape.org/) -->

<svg
   xmlns:dc="http://purl.org/dc/elements/1.1/"
   xmlns:cc="http://creativecommons.org/ns#"
   xmlns:rdf="http://www.w3.org/1999/02/22-rdf-syntax-ns#"
   xmlns:svg="http://www.w3.org/2000/svg"
   xmlns="http://www.w3.org/2000/svg"
   xmlns:sodipodi="http://sodipodi.sourceforge.net/DTD/sodipodi-0.dtd"
   xmlns:inkscape="http://www.inkscape.org/namespaces/inkscape"
   id="svg2985"
   version="1.1"
   inkscape:version="0.48.2 r9819"
   width="1200"
   height="307"
   sodipodi:docname="Kill Bill.svg">
  <metadata
     id="metadata2991">
    <rdf:RDF>
      <cc:Work
         rdf:about="">
        <dc:format>image/svg+xml</dc:format>
        <dc:type
           rdf:resource="http://purl.org/dc/dcmitype/StillImage" />
      </cc:Work>
    </rdf:RDF>
  </metadata>
  <defs
     id="defs2989" />
  <sodipodi:namedview
     pagecolor="#ffffff"
     bordercolor="#666666"
     borderopacity="1"
     objecttolerance="10"
     gridtolerance="10"
     guidetolerance="10"
     inkscape:pageopacity="0"
     inkscape:pageshadow="2"
     inkscape:window-width="1366"
     inkscape:window-height="706"
     id="namedview2987"
     showgrid="false"
     inkscape:zoom="0.76388248"
     inkscape:cx="703.45515"
     inkscape:cy="151.57072"
     inkscape:window-x="-8"
     inkscape:window-y="-8"
     inkscape:window-maximized="1"
     inkscape:current-layer="svg2985" />
  <g
     id="g3019"
     transform="translate(-64.145992,-310.25715)"
     style="fill:#f2c811;stroke:#f2c811;stroke-opacity:1;stroke-width:3;stroke-miterlimit:4;stroke-dasharray:none">
    <path
       style="fill:#f2c811;stroke:#f2c811;stroke-width:3;stroke-miterlimit:4;stroke-opacity:1;stroke-dasharray:none"
       d="m 112.18804,600.21698 c -2.03512,-0.43018 -2.18552,-1.20549 -2.84144,-14.64793 -0.80009,-16.397 -0.30293,-115.23591 0.58409,-116.12167 1.21958,-1.21785 125.76015,4.85142 127.03154,6.19066 1.17415,1.23681 36.87466,120.05253 36.87466,122.72344 0,2.05046 -11.17571,2.71871 -39.20185,2.34407 -17.34798,-0.2319 -25.05496,-0.68387 -25.88797,-1.51817 -0.65237,-0.65339 -5.56266,-18.42839 -10.91175,-39.5 -5.3491,-21.07162 -11.3058,-44.38703 -13.23711,-51.81203 -1.93132,-7.425 -3.80127,-14.7375 -4.15545,-16.25 -0.48375,-2.06577 -1.24658,-2.75 -3.06591,-2.75 -1.33206,0 -2.78598,0.5625 -3.23094,1.25 -0.44496,0.6875 -1.03402,25.40066 -1.30902,54.91812 -0.275,29.51747 -0.87431,54.04247 -1.33179,54.5 -0.85982,0.85991 -55.50023,1.48032 -59.31706,0.67351 z m 185.89885,-0.0738 -4.25,-0.38279 0,-60.88348 c 0,-33.48592 0.3375,-61.06046 0.75,-61.27675 0.70797,-0.37123 12.76599,0.0785 48,1.79039 l 15.25,0.74093 0,59.71323 0,59.71323 -20.25,0.6561 c -20.34843,0.65929 -31.61792,0.63907 -39.5,-0.0709 z m 101.10187,0.0703 -7.14813,-0.42161 -0.73667,-14.70824 c -0.67168,-13.41055 0.25101,-102.2239 1.07079,-103.06875 0.39221,-0.4042 43.77214,1.53408 55.58199,2.48348 l 7.61986,0.61257 0.63014,6.02891 c 0.34658,3.31591 0.63015,17.64708 0.63015,31.84705 0,23.56614 0.15264,25.89961 1.75,26.75232 0.9625,0.51381 10.1875,1.26449 20.5,1.66818 l 18.75,0.73398 0,23.867 0,23.86701 -11.33661,0 c -6.23513,0 -26.82263,0.17093 -45.75,0.37985 -18.92736,0.20892 -37.63005,0.19013 -41.56152,-0.0417 z m 124.98831,-0.0788 -7.15983,-0.34329 -0.73854,-9.70801 c -0.76887,-10.10671 0.20582,-101.18898 1.09234,-102.07549 0.65064,-0.65064 62.42209,1.7224 63.58775,2.44282 0.48295,0.29848 0.8781,12.38489 0.8781,26.85868 0,27.22215 0.36449,32.10814 2.4551,32.91038 0.67687,0.25974 9.85137,0.80042 20.38779,1.20152 l 19.15711,0.7293 0,23.70045 0,23.70046 -34.66339,0.66195 c -33.73984,0.6443 -50.33558,0.6242 -64.99643,-0.0787 z m 380.02173,0.0139 -4.13809,-0.37732 -0.75094,-26.69797 c -0.69296,-24.63609 -0.0351,-66.96911 1.05773,-68.06191 0.60615,-0.60615 60.23242,1.83577 62.07316,2.54213 1.16681,0.44775 1.39623,8.05059 1.39623,46.27008 l 0,45.73428 -20.25,0.6561 c -20.30168,0.65777 -31.66408,0.63891 -39.38809,-0.0654 z m 100.9783,0.0646 -7.15986,-0.42184 -0.73769,-9.70801 c -0.68503,-9.01504 0.12728,-80.11128 0.92442,-80.90842 0.38357,-0.38358 39.13453,1.27761 54.30533,2.32797 l 9.1724,0.63506 0.3276,18.40656 c 0.257,14.44254 0.6295,18.59282 1.7292,19.27142 0.7709,0.47568 10.3334,1.19101 21.25,1.58962 l 19.8484,0.72474 0,23.87252 0,23.87252 -11.8366,0 c -6.5101,0 -27.3226,0.17093 -46.25,0.37985 -18.9274,0.20892 -37.6353,0.19003 -41.5732,-0.042 z m 128.4467,-0.0786 -6.7131,-0.34899 -0.6618,-3.52754 c -0.8363,-4.45821 -0.045,-80.08285 0.8471,-80.97519 0.8083,-0.80831 61.7054,2.22458 62.6021,3.1178 0.3513,0.35002 0.8638,7.36761 1.1388,15.59465 0.362,10.83091 0.8623,15.18143 1.8131,15.76711 1.285,0.79156 22.763,2.11287 34.345,2.11287 l 5.8419,0 0,23.83806 0,23.83805 -34.6634,0.66195 c -33.871,0.64681 -50.9945,0.62591 -64.5497,-0.0788 z M 710.44388,598.2935 c -0.81654,-2.12787 -0.77703,-78.32808 0.0476,-91.80564 l 0.65459,-10.69855 15.09541,0.60087 c 24.36284,0.96977 47.84992,2.40629 48.40414,2.96052 0.28276,0.28276 0.7205,13.22897 0.97275,28.76935 0.2703,16.65316 0.87022,28.76851 1.46101,29.50524 1.27635,1.59164 8.81837,1.61165 14.07291,0.0374 2.2261,-0.66695 5.72146,-2.80509 7.76747,-4.75141 4.50147,-4.28215 4.65199,-5.14527 5.67224,-32.52715 l 0.74489,-19.99116 11.5,0.27828 c 15.46442,0.37423 49.1929,2.1764 50.75,2.71167 0.95101,0.32692 1.24904,5.87888 1.24598,23.21109 -0.006,32.53675 -2.90619,48.24448 -10.99392,59.53885 -5.1056,7.12989 -12.97051,11.29658 -24.00206,12.71586 -4.125,0.5307 -33.43936,0.97881 -65.14301,0.99579 -51.65859,0.0277 -57.70603,-0.13334 -58.25,-1.55091 z m 436.89302,-91.47344 c -7.15,-0.39416 -15.9673,-0.76796 -19.5939,-0.83067 l -6.5939,-0.114 -0.6045,-21.75 c -0.3324,-11.9625 -0.3299,-51.1125 0.01,-87 l 0.6101,-65.25 31.3383,0 31.3383,0 0,88 0,88 -11.75,-0.16933 c -6.4625,-0.0931 -17.6,-0.49183 -24.75,-0.886 z m -125.5,-6.0401 c -8.525,-0.4401 -18.7625,-1.08707 -22.75001,-1.4377 l -7.25,-0.63751 0,-83.41468 0,-83.41468 32.00001,0 32,0 0,85 0,85 -9.25,-0.14762 c -5.0875,-0.0812 -16.225,-0.50771 -24.75,-0.94781 z m -99.50001,-5.45952 c -11,-0.69662 -21.9125,-1.30673 -24.25,-1.35581 l -4.25,-0.0892 0,-81 0,-81 32,0 32,0 0,82.5 0,82.5 -7.75,-0.14419 c -4.2625,-0.0793 -16.75,-0.71415 -27.75,-1.41076 z m -98,-5 c -11.01893,-0.26169 -21.45335,-1.30673 -23.22968,-1.35581 -2.71042,-0.0749 -3.55,-0.71714 -5.2221,-3.99471 -2.78756,-5.46408 -6.04089,-7.678 -13.29371,-9.04651 -9.56857,-1.80546 -13.75451,0.59458 -13.75451,7.88624 0,2.25671 -0.46182,3.06323 -1.75,3.05624 -4.91015,-0.0267 -46.85255,-2.00333 -54,-2.54491 l -8.25,-0.62513 0,-75.98244 0,-75.98243 51.25,0.39063 c 49.68759,0.37873 51.47865,0.4593 58.75,2.64287 12.63817,3.79521 19.88167,7.81403 27.07594,15.02224 12.0389,12.06221 15.29819,22.64314 15.275,49.58867 -0.029,33.64485 -2.43236,38.6003 -23.01497,47.45344 -7.4695,3.21283 -8.88342,4.19082 -9.14278,6.32393 -0.28368,2.33319 0.41219,2.80194 9.23408,6.22014 11.48621,4.45054 16.59001,7.96946 20.00121,13.79023 2.60624,4.44723 7.26578,15.39046 7.26578,17.83165 -37.25842,-0.66499 0.26453,0.21529 -37.19426,-0.67434 z m -34.29586,-55.10405 c 4.79502,-2.7594 6.54988,-7.30154 7.85874,-20.341 2.48783,-24.78479 -1.75156,-38.56165 -12.62043,-41.01298 -4.28401,-0.9662 -13.31077,-0.20992 -15.19245,1.27286 -0.94806,0.74708 -1.25,7.9143 -1.25,29.67144 0,29.43505 0.18265,30.91611 4,32.43574 2.93779,1.16949 13.89314,-0.12067 17.20414,-2.02606 z m -257.03446,40.14339 c -11.73167,-0.68476 -21.70647,-1.63638 -22.16621,-2.11471 -0.45975,-0.47832 -0.57981,-32.48218 -0.26681,-71.11968 l 0.56908,-70.25 31.84713,0 31.84713,0 0,72.5 0,72.5 -10.25,-0.13529 c -5.6375,-0.0744 -19.84864,-0.69555 -31.58032,-1.38032 z m -121.16968,-6.04699 c -10.725,-0.69749 -20.9625,-1.30624 -22.75,-1.35278 l -3.25,-0.0846 0,-68 0,-68 32,0 32,0 0,69.5 0,69.5 -9.25,-0.14722 c -5.0875,-0.081 -18.025,-0.71789 -28.75,-1.41538 z m -93.5,-4.55195 c -9.35,-0.4495 -19.74803,-1.08652 -23.10674,-1.41561 l -6.10673,-0.59834 -0.63727,-8.18575 c -0.82048,-10.539 -0.81628,-37.8606 0.013,-85.02209 l 0.66237,-37.66366 31.33768,0 31.33769,0 0,67 0,67 -8.25,-0.14864 c -4.5375,-0.0817 -15.9,-0.51641 -25.25,-0.96591 z m -130,-6.99136 c -44.93147,-2.61333 -68.00302,-4.00065 -75.75,-4.55497 l -8.75,-0.62608 0,-60.35652 0,-60.35652 31.35026,0 31.35025,0 0.64975,9.15363 c 0.35736,5.03449 0.69424,24.72199 0.74864,43.75 0.0544,19.028 0.39189,37.07137 0.75,40.09637 0.58833,4.96981 0.88406,5.5 3.06777,5.5 2.17682,0 2.74063,-0.99245 5.68094,-10 4.24019,-12.98965 27.40239,-87.38715 27.40239,-88.01707 0,-0.26561 13.275,-0.48293 29.5,-0.48293 18.27132,0 29.5,0.36703 29.5,0.96427 0,1.30752 -22.67054,71.3098 -28.34882,87.53573 -7.29886,20.8568 -9.82297,30.48903 -9.1062,34.75 l 0.63082,3.75 -12.3379,-0.14582 c -6.78585,-0.0802 -18.6379,-0.51224 -26.3379,-0.96009 z"
       id="path3021"
       inkscape:connector-curvature="0"
       sodipodi:nodetypes="sssssssssssssssccscscccsccccssscsssscccssccccsssssscccsccccsssscsccscssscscscccssscccccssscccscccscssssssscsssssscccscsccccccsccsscccccccsscscccccccsccssssscscccsssssssscssssssssscscccccsscscccccccsccsscssccccccssscccccsssssssssscss" />
  </g>
</svg>
